<svg width="302" height="178" viewBox="0 0 302 178" fill="none" xmlns="http://www.w3.org/2000/svg">
<rect y="33" width="270" height="145" rx="10" fill="#EBF3FA"/>
<rect y="51" width="270" height="36" fill="#5C5C5C"/>
<rect x="18" y="105" width="58" height="10" rx="3" fill="#5C5C5C"/>
<rect x="18" y="125" width="78" height="10" rx="3" fill="#5C5C5C"/>
<rect x="18" y="145" width="126" height="10" rx="3" fill="#5C5C5C"/>
<rect x="184" y="105" width="68" height="10" rx="3" fill="#5C5C5C"/>
<rect x="86" y="105" width="58" height="10" rx="3" fill="#5C5C5C"/>
<rect x="184" y="125" width="29" height="10" rx="3" fill="#5C5C5C"/>
<rect x="223" y="125" width="29" height="10" rx="3" fill="#5C5C5C"/>
<circle cx="264.5" cy="37.5" r="37.5" fill="#0071BB"/>
<path fill-rule="evenodd" clip-rule="evenodd" d="M259.973 41.42C259.693 42.54 259.653 43.78 259.853 45.14H267.593C267.473 43.94 267.593 42.88 267.953 41.96C268.313 41 268.793 40.1 269.393 39.26C270.033 38.42 270.713 37.62 271.433 36.86C272.193 36.06 272.893 35.24 273.533 34.4C274.213 33.56 274.773 32.66 275.213 31.7C275.653 30.7 275.873 29.58 275.873 28.34C275.873 26.58 275.573 25.06 274.973 23.78C274.413 22.46 273.613 21.38 272.573 20.54C271.573 19.7 270.373 19.08 268.973 18.68C267.613 18.28 266.133 18.08 264.533 18.08C262.173 18.08 260.013 18.58 258.053 19.58C256.133 20.58 254.473 21.9 253.073 23.54L257.933 27.98C258.733 27.18 259.553 26.52 260.393 26C261.273 25.48 262.273 25.22 263.393 25.22C264.593 25.22 265.553 25.54 266.273 26.18C267.033 26.82 267.413 27.76 267.413 29C267.413 29.76 267.193 30.5 266.753 31.22C266.353 31.9 265.833 32.62 265.193 33.38C264.553 34.1 263.873 34.86 263.153 35.66C262.473 36.46 261.853 37.34 261.293 38.3C260.733 39.26 260.293 40.3 259.973 41.42ZM259.913 58.16C260.913 59.2 262.173 59.72 263.693 59.72C265.213 59.72 266.473 59.2 267.473 58.16C268.513 57.08 269.033 55.76 269.033 54.2C269.033 52.6 268.513 51.28 267.473 50.24C266.473 49.16 265.213 48.62 263.693 48.62C262.173 48.62 260.913 49.16 259.913 50.24C258.913 51.28 258.413 52.6 258.413 54.2C258.413 55.76 258.913 57.08 259.913 58.16Z" fill="white"/>
</svg>
