<svg width="295" height="171" viewBox="0 0 295 171" fill="none" xmlns="http://www.w3.org/2000/svg">
<rect y="21" width="274" height="150" rx="10" fill="#EBF3FA"/>
<rect x="24" y="37" width="100" height="118" rx="5" fill="white"/>
<mask id="mask0" mask-type="alpha" maskUnits="userSpaceOnUse" x="24" y="37" width="100" height="118">
<rect x="24" y="37" width="100" height="118" rx="5" fill="#757575"/>
</mask>
<g mask="url(#mask0)">
<mask id="mask1" mask-type="alpha" maskUnits="userSpaceOnUse" x="31" y="55" width="82" height="100">
<path fill-rule="evenodd" clip-rule="evenodd" d="M81.5461 114.486V121.982H83.1767C99.3859 121.982 112.526 135.122 112.526 151.331V155H31V151.331C31 135.122 44.1402 121.982 60.3494 121.982H61.9799V114.486C54.9534 111.148 49.9027 104.326 49.0601 96.2529C46.6857 95.9172 44.8594 93.8766 44.8594 91.4097V85.7028C44.8594 83.2791 46.6222 81.2671 48.9357 80.8789V78.3655C48.9357 65.7583 59.1558 55.5382 71.763 55.5382C84.3702 55.5382 94.5903 65.7583 94.5903 78.3655V80.8789C96.9038 81.2671 98.6666 83.2791 98.6666 85.7028V91.4097C98.6666 93.8766 96.8403 95.9172 94.466 96.2529C93.6233 104.326 88.5726 111.148 81.5461 114.486Z" fill="white"/>
</mask>
<g mask="url(#mask1)">
<path d="M81.5461 114.486V121.982H83.1767C99.3859 121.982 112.526 135.122 112.526 151.331V155H31V151.331C31 135.122 44.1402 121.982 60.3494 121.982H61.9799V114.486C54.9534 111.148 49.9027 104.326 49.0601 96.2529C46.6857 95.9172 44.8594 93.8766 44.8594 91.4097V85.7028C44.8594 83.2791 46.6222 81.2671 48.9357 80.8789V78.3655C48.9357 65.7583 59.1558 55.5382 71.763 55.5382C84.3702 55.5382 94.5903 65.7583 94.5903 78.3655V80.8789C96.9038 81.2671 98.6666 83.2791 98.6666 85.7028V91.4097C98.6666 93.8766 96.8403 95.9172 94.466 96.2529C93.6233 104.326 88.5726 111.148 81.5461 114.486Z" fill="#D0C6AC"/>
<path d="M125.57 55.5382H17.9558V155H125.57V55.5382Z" fill="#D08B5B"/>
<path fill-rule="evenodd" clip-rule="evenodd" d="M94.5902 87.741V97.1165C94.5902 109.724 84.3701 119.944 71.763 119.944C59.1558 119.944 48.9357 109.724 48.9357 97.1165V87.741V93.8554C48.9357 106.463 59.1558 116.683 71.763 116.683C84.3701 116.683 94.5902 106.463 94.5902 93.8554V87.741Z" fill="black" fill-opacity="0.1"/>
</g>
<path fill-rule="evenodd" clip-rule="evenodd" d="M85.6064 122.102C100.679 123.337 112.526 135.961 112.526 151.352V155H31V151.352C31 135.822 43.0626 123.109 58.3297 122.071C58.3174 122.224 58.3112 122.377 58.3112 122.531C58.3112 127.367 64.425 131.287 71.9668 131.287C79.5087 131.287 85.6225 127.367 85.6225 122.531C85.6225 122.387 85.617 122.244 85.6064 122.102Z" fill="#262E33"/>
<path fill-rule="evenodd" clip-rule="evenodd" d="M59.0388 122.032C43.4377 122.717 31 135.582 31 151.352V151.352V155H59.2739C57.8876 150.076 57.0883 144.283 57.0883 138.083C57.0883 132.243 57.7976 126.764 59.0388 122.032ZM84.6598 155H112.526V151.352C112.526 135.722 100.307 122.945 84.9005 122.053C86.1381 126.78 86.8453 132.252 86.8453 138.083C86.8453 144.283 86.0461 150.076 84.6598 155Z" fill="#3A4C5A"/>
<path fill-rule="evenodd" clip-rule="evenodd" d="M91.7369 145.217L95.6321 142.295C96.2204 141.854 97.0311 141.861 97.6116 142.313L100.297 144.402L91.7369 145.217Z" fill="#E6E6E6"/>
<path fill-rule="evenodd" clip-rule="evenodd" d="M59.1265 121.574C57.496 129.455 58.1754 140.597 61.1647 155H54.6426L48.9358 140.325L51.3816 136.657L48.9358 134.211L56.6808 121.982C57.5073 121.725 58.3226 121.589 59.1265 121.574Z" fill="#2F4351"/>
<path fill-rule="evenodd" clip-rule="evenodd" d="M84.3996 121.574C86.0301 129.455 85.3507 140.597 82.3615 155H88.8835L94.5904 140.325L92.1446 136.657L94.5904 134.211L86.8454 121.982C86.0188 121.725 85.2036 121.589 84.3996 121.574Z" fill="#2F4351"/>
<path fill-rule="evenodd" clip-rule="evenodd" d="M66.0563 101.6C66.0563 104.752 68.6113 107.307 71.7631 107.307C74.9149 107.307 77.4699 104.752 77.4699 101.6" fill="black" fill-opacity="0.7"/>
<path fill-rule="evenodd" clip-rule="evenodd" d="M66.8715 93.8554C66.8715 95.6565 69.0615 97.1164 71.763 97.1164C74.4646 97.1164 76.6546 95.6565 76.6546 93.8554" fill="black" fill-opacity="0.16"/>
<path d="M61.1648 88.9639C62.5155 88.9639 63.6106 87.8688 63.6106 86.5181C63.6106 85.1674 62.5155 84.0723 61.1648 84.0723C59.8141 84.0723 58.719 85.1674 58.719 86.5181C58.719 87.8688 59.8141 88.9639 61.1648 88.9639Z" fill="black" fill-opacity="0.6"/>
<path d="M82.3614 88.9639C83.7122 88.9639 84.8072 87.8688 84.8072 86.5181C84.8072 85.1674 83.7122 84.0723 82.3614 84.0723C81.0107 84.0723 79.9156 85.1674 79.9156 86.5181C79.9156 87.8688 81.0107 88.9639 82.3614 88.9639Z" fill="black" fill-opacity="0.6"/>
<path d="M55.3072 81.2836C56.9031 79.038 61.2781 77.7788 65.0467 78.7043C65.484 78.8117 65.9254 78.5443 66.0328 78.107C66.1402 77.6698 65.8728 77.2283 65.4355 77.1209C61.0589 76.0461 55.9928 77.5042 53.9781 80.339C53.7174 80.7061 53.8035 81.215 54.1704 81.4759C54.5374 81.7367 55.0465 81.6506 55.3072 81.2836Z" fill="black" fill-opacity="0.6"/>
<path d="M88.2191 81.2836C86.6233 79.038 82.2484 77.7788 78.4797 78.7043C78.0425 78.8117 77.601 78.5443 77.4936 78.107C77.3862 77.6698 77.6537 77.2283 78.0909 77.1209C82.4674 76.0461 87.5335 77.5042 89.5482 80.339C89.8091 80.7061 89.723 81.215 89.356 81.4759C88.9889 81.7367 88.48 81.6506 88.2191 81.2836Z" fill="black" fill-opacity="0.6"/>
<path fill-rule="evenodd" clip-rule="evenodd" d="M44.8596 86.9257C52.1247 73.7449 73.612 73.7213 80.4986 67.0369C84.892 70.4976 92.1006 73.175 94.5754 80.7578C92.1006 72.0163 84.892 67.9955 80.4986 64.0076C73.612 71.7103 52.1247 71.7374 44.8596 86.9257Z" fill="black" fill-opacity="0.16"/>
<path fill-rule="evenodd" clip-rule="evenodd" d="M42.4136 111.196V75.1234C42.4136 73.6835 42.5759 72.2816 42.8832 70.9348C44.1277 62.7661 48.8441 56.2764 54.2349 52.2772C62.3486 46.2607 76.0194 44.5248 80.75 51.6747C84.2766 50.109 89.5026 51.5361 93.3674 55.1306C97.2664 58.9685 100.379 67.4399 98.5269 74.3721C98.5696 74.8881 98.5914 75.4098 98.5914 75.9363V84.8437C98.2321 82.8162 96.624 81.2201 94.5903 80.8789V80.8113C92.1297 72.0327 84.9008 68.0035 80.4984 64.0076C73.6118 71.7103 52.1245 71.7373 44.8594 86.9257V91.002C44.8594 93.4554 46.6656 95.4869 49.0207 95.8395C49.7313 104.093 54.8338 111.091 61.9799 114.486V114.645C63.1744 132.521 59.2726 154.917 33.8534 148.07C39.3994 144.825 42.3354 124.043 42.4136 111.196ZM81.5461 114.486C88.6922 111.091 93.7947 104.093 94.5053 95.8395C96.579 95.529 98.2271 93.917 98.5914 91.8613V92.4167C98.5914 98.8687 100.123 105.229 103.06 110.973L114.045 132.458C116.884 138.01 116.05 144.472 112.441 149.077C111.289 133.921 98.6273 121.982 83.1767 121.982H81.5461V114.486Z" fill="#2C1B18"/>
</g>
<rect x="146" y="37" width="104" height="17.8349" rx="4" fill="#757575"/>
<rect x="146" y="64.7431" width="41.211" height="9.90826" rx="3" fill="#757575"/>
<rect x="146" y="84.5596" width="59.5596" height="9.90825" rx="3" fill="#757575"/>
<rect x="146" y="104.376" width="50.3853" height="9.90826" rx="3" fill="#757575"/>
<path d="M224.899 94.6129C224.899 91.8514 227.138 89.6129 229.899 89.6129H244.596C247.358 89.6129 249.596 91.8514 249.596 94.6129V129.2C249.596 131.961 247.358 134.2 244.596 134.2H229.899C227.138 134.2 224.899 131.961 224.899 129.2V94.6129Z" fill="#757575"/>
<rect x="208.385" y="64.7431" width="41.211" height="9.90826" rx="3" fill="#757575"/>
<rect x="146" y="124.193" width="14.6055" height="9.90826" rx="3" fill="#757575"/>
<rect x="181.78" y="124.193" width="14.6055" height="9.90826" rx="3" fill="#757575"/>
<path d="M295 34.9983C295 54.3294 279.33 69.9966 260 69.9966C240.67 69.9966 225 54.3294 225 34.9983C225 15.6672 240.67 0 260 0C279.33 0 295 15.6672 295 34.9983Z" fill="#18852E"/>
<path d="M255.952 53.5302L281.919 27.5642C282.801 26.6801 282.801 25.2519 281.919 24.3678L278.726 21.1757C277.844 20.2959 276.415 20.2959 275.533 21.1757L254.355 42.3515L244.468 32.4649C243.586 31.5851 242.156 31.5851 241.274 32.4649L238.081 35.6613C237.199 36.5411 237.199 37.9693 238.081 38.8534L252.758 53.5302C253.64 54.4101 255.07 54.4101 255.952 53.5302Z" fill="white"/>
</svg>
