<svg width="302" height="178" viewBox="0 0 302 178" fill="none" xmlns="http://www.w3.org/2000/svg">
<rect y="33" width="270" height="145" rx="10" fill="#EBF3FA"/>
<rect x="18" y="51" width="90" height="109" rx="5" fill="white"/>
<rect x="126" y="51" width="126" height="18" rx="4" fill="#5C5C5C"/>
<rect x="126" y="79" width="58" height="10" rx="3" fill="#5C5C5C"/>
<rect x="126" y="99" width="78" height="10" rx="3" fill="#5C5C5C"/>
<rect x="126" y="119" width="68" height="10" rx="3" fill="#5C5C5C"/>
<rect x="212" y="115" width="40" height="45" rx="5" fill="#5C5C5C"/>
<rect x="194" y="79" width="58" height="10" rx="3" fill="#5C5C5C"/>
<rect x="126" y="139" width="29" height="10" rx="3" fill="#5C5C5C"/>
<rect x="165" y="139" width="29" height="10" rx="3" fill="#5C5C5C"/>
<mask id="mask0" mask-type="alpha" maskUnits="userSpaceOnUse" x="24" y="65" width="78" height="96">
<path fill-rule="evenodd" clip-rule="evenodd" d="M72.2726 121.781V128.886H73.8181C89.1816 128.886 101.636 141.341 101.636 156.705V160.182H24.3635V156.705C24.3635 141.341 36.8182 128.886 52.1817 128.886H53.7272V121.781C47.0673 118.618 42.2801 112.152 41.4814 104.5C39.2309 104.181 37.4999 102.247 37.4999 99.9091V94.5C37.4999 92.2027 39.1708 90.2956 41.3635 89.9278V87.5455C41.3635 75.596 51.0505 65.9091 62.9999 65.9091C74.9493 65.9091 84.6363 75.596 84.6363 87.5455V89.9278C86.829 90.2956 88.4999 92.2027 88.4999 94.5V99.9091C88.4999 102.247 86.7689 104.181 84.5184 104.5C83.7197 112.152 78.9325 118.618 72.2726 121.781Z" fill="white"/>
</mask>
<g mask="url(#mask0)">
<path d="M72.2726 121.781V128.886H73.8181C89.1816 128.886 101.636 141.341 101.636 156.705V160.182H24.3635V156.705C24.3635 141.341 36.8182 128.886 52.1817 128.886H53.7272V121.781C47.0673 118.618 42.2801 112.152 41.4814 104.5C39.2309 104.181 37.4999 102.247 37.4999 99.9091V94.5C37.4999 92.2027 39.1708 90.2956 41.3635 89.9278V87.5455C41.3635 75.596 51.0505 65.9091 62.9999 65.9091C74.9493 65.9091 84.6363 75.596 84.6363 87.5455V89.9278C86.829 90.2956 88.4999 92.2027 88.4999 94.5V99.9091C88.4999 102.247 86.7689 104.181 84.5184 104.5C83.7197 112.152 78.9325 118.618 72.2726 121.781Z" fill="#D0C6AC"/>
<path d="M114 65.9091H12V160.182H114V65.9091Z" fill="#D08B5B"/>
<path fill-rule="evenodd" clip-rule="evenodd" d="M84.6363 96.4318V105.318C84.6363 117.268 74.9493 126.955 62.9999 126.955C51.0505 126.955 41.3635 117.268 41.3635 105.318V96.4318V102.227C41.3635 114.177 51.0505 123.864 62.9999 123.864C74.9493 123.864 84.6363 114.177 84.6363 102.227V96.4318Z" fill="black" fill-opacity="0.1"/>
</g>
<mask id="mask1" mask-type="alpha" maskUnits="userSpaceOnUse" x="24" y="128" width="78" height="33">
<path fill-rule="evenodd" clip-rule="evenodd" d="M76.121 129C90.4072 130.171 101.636 142.136 101.636 156.725V160.182H24.3635V156.725C24.3635 142.004 35.7968 129.955 50.2674 128.971C50.2558 129.115 50.2499 129.261 50.2499 129.407C50.2499 133.991 56.0448 137.706 63.1931 137.706C70.3414 137.706 76.1363 133.991 76.1363 129.407C76.1363 129.271 76.1311 129.135 76.121 129Z" fill="white"/>
</mask>
<g mask="url(#mask1)">
<path fill-rule="evenodd" clip-rule="evenodd" d="M76.121 129C90.4072 130.171 101.636 142.136 101.636 156.725V160.182H24.3635V156.725C24.3635 142.004 35.7968 129.955 50.2674 128.971C50.2558 129.115 50.2499 129.261 50.2499 129.407C50.2499 133.991 56.0448 137.706 63.1931 137.706C70.3414 137.706 76.1363 133.991 76.1363 129.407C76.1363 129.271 76.1311 129.135 76.121 129Z" fill="#E6E6E6"/>
<path d="M114 117.682H12V160.182H114V117.682Z" fill="#1B1B1B"/>
<g opacity="0.6">
<path opacity="0.6" d="M63.1932 140.385C71.6506 140.385 78.5067 135.73 78.5067 129.987C78.5067 124.244 71.6506 119.588 63.1932 119.588C54.7357 119.588 47.8796 124.244 47.8796 129.987C47.8796 135.73 54.7357 140.385 63.1932 140.385Z" fill="black" fill-opacity="0.16"/>
</g>
</g>
<path fill-rule="evenodd" clip-rule="evenodd" d="M57.5911 109.568C57.5911 112.556 60.0128 114.977 63.0002 114.977C65.9876 114.977 68.4093 112.556 68.4093 109.568" fill="black" fill-opacity="0.7"/>
<path fill-rule="evenodd" clip-rule="evenodd" d="M58.3638 102.227C58.3638 103.934 60.4396 105.318 63.0002 105.318C65.5608 105.318 67.6366 103.934 67.6366 102.227" fill="black" fill-opacity="0.16"/>
<path d="M52.9546 97.5909C54.2349 97.5909 55.2728 96.553 55.2728 95.2727C55.2728 93.9924 54.2349 92.9545 52.9546 92.9545C51.6743 92.9545 50.6365 93.9924 50.6365 95.2727C50.6365 96.553 51.6743 97.5909 52.9546 97.5909Z" fill="black" fill-opacity="0.6"/>
<path d="M73.0454 97.5909C74.3257 97.5909 75.3636 96.553 75.3636 95.2727C75.3636 93.9924 74.3257 92.9545 73.0454 92.9545C71.7651 92.9545 70.7273 93.9924 70.7273 95.2727C70.7273 96.553 71.7651 97.5909 73.0454 97.5909Z" fill="black" fill-opacity="0.6"/>
<path d="M47.4027 90.3113C48.9153 88.1829 53.062 86.9894 56.634 87.8666C57.0485 87.9684 57.4669 87.7149 57.5687 87.3004C57.6705 86.886 57.417 86.4675 57.0026 86.3657C52.8543 85.347 48.0525 86.7291 46.143 89.416C45.8957 89.7639 45.9773 90.2463 46.3252 90.4935C46.6731 90.7407 47.1555 90.6591 47.4027 90.3113Z" fill="black" fill-opacity="0.6"/>
<path d="M78.5977 90.3113C77.0851 88.1829 72.9384 86.9894 69.3664 87.8666C68.952 87.9684 68.5335 87.7149 68.4317 87.3004C68.3299 86.886 68.5834 86.4675 68.9978 86.3657C73.1461 85.347 77.9479 86.7291 79.8575 89.416C80.1047 89.7639 80.0231 90.2463 79.6752 90.4935C79.3274 90.7407 78.8449 90.6591 78.5977 90.3113Z" fill="black" fill-opacity="0.6"/>
<mask id="mask2" mask-type="alpha" maskUnits="userSpaceOnUse" x="12" y="52" width="102" height="109">
<path fill-rule="evenodd" clip-rule="evenodd" d="M114 52H12V160.182H114V52Z" fill="white"/>
</mask>
<g mask="url(#mask2)">
<mask id="mask3" mask-type="alpha" maskUnits="userSpaceOnUse" x="40" y="89" width="46" height="36">
<path fill-rule="evenodd" clip-rule="evenodd" d="M69.7337 117.747C68.7626 118.633 67.728 119.032 66.4205 118.753C66.1955 118.705 65.2781 117 62.9999 117C60.7217 117 59.8046 118.705 59.5794 118.753C58.2719 119.032 57.2373 118.633 56.2662 117.747C54.4406 116.081 52.9223 113.783 53.8346 111.276C54.3101 109.969 55.0833 108.534 56.49 108.118C57.9921 107.673 60.1011 108.117 61.6148 107.814C62.1052 107.715 62.6409 107.54 62.9999 107.25C63.3589 107.54 63.8948 107.715 64.385 107.814C65.8988 108.117 68.0078 107.673 69.5099 108.118C70.9166 108.534 71.6898 109.969 72.1654 111.276C73.0777 113.783 71.5594 116.081 69.7337 117.747ZM84.6677 89.8637C83.35 93.1093 83.8589 97.1498 83.6151 100.557C83.417 103.326 82.8348 107.476 80.3759 109.265C79.1185 110.179 76.8296 111.716 75.1866 111.288C74.0556 110.993 73.9349 107.749 72.4486 106.534C70.7627 105.157 68.6575 104.552 66.5349 104.645C65.619 104.686 63.7666 104.676 63 105.38C62.2334 104.676 60.3811 104.686 59.4652 104.645C57.3424 104.552 55.2372 105.157 53.5513 106.534C52.065 107.749 51.9445 110.993 50.8134 111.288C49.1704 111.716 46.8816 110.179 45.6241 109.265C43.165 107.476 42.5831 103.326 42.3847 100.557C42.141 97.1498 42.6499 93.1093 41.3323 89.8637C40.6913 89.8637 41.1141 96.0953 41.1141 96.0953V103.96C41.1263 109.867 44.8158 118.708 52.9963 122.084C54.9969 122.909 59.5286 124.25 63 124.25C66.4713 124.25 71.003 123.037 73.0037 122.211C81.1841 118.836 84.8737 109.867 84.886 103.96V96.0953C84.886 96.0953 85.3087 89.8637 84.6677 89.8637Z" fill="white"/>
</mask>
<g mask="url(#mask3)">
<path fill-rule="evenodd" clip-rule="evenodd" d="M69.7337 117.747C68.7626 118.633 67.728 119.032 66.4205 118.753C66.1955 118.705 65.2781 117 62.9999 117C60.7217 117 59.8046 118.705 59.5794 118.753C58.2719 119.032 57.2373 118.633 56.2662 117.747C54.4406 116.081 52.9223 113.783 53.8346 111.276C54.3101 109.969 55.0833 108.534 56.49 108.118C57.9921 107.673 60.1011 108.117 61.6148 107.814C62.1052 107.715 62.6409 107.54 62.9999 107.25C63.3589 107.54 63.8948 107.715 64.385 107.814C65.8988 108.117 68.0078 107.673 69.5099 108.118C70.9166 108.534 71.6898 109.969 72.1654 111.276C73.0777 113.783 71.5594 116.081 69.7337 117.747ZM84.6677 89.8637C83.35 93.1093 83.8589 97.1498 83.6151 100.557C83.417 103.326 82.8348 107.476 80.3759 109.265C79.1185 110.179 76.8296 111.716 75.1866 111.288C74.0556 110.993 73.9349 107.749 72.4486 106.534C70.7627 105.157 68.6575 104.552 66.5349 104.645C65.619 104.686 63.7666 104.676 63 105.38C62.2334 104.676 60.3811 104.686 59.4652 104.645C57.3424 104.552 55.2372 105.157 53.5513 106.534C52.065 107.749 51.9445 110.993 50.8134 111.288C49.1704 111.716 46.8816 110.179 45.6241 109.265C43.165 107.476 42.5831 103.326 42.3847 100.557C42.141 97.1498 42.6499 93.1093 41.3323 89.8637C40.6913 89.8637 41.1141 96.0953 41.1141 96.0953V103.96C41.1263 109.867 44.8158 118.708 52.9963 122.084C54.9969 122.909 59.5286 124.25 63 124.25C66.4713 124.25 71.003 123.037 73.0037 122.211C81.1841 118.836 84.8737 109.867 84.886 103.96V96.0953C84.886 96.0953 85.3087 89.8637 84.6677 89.8637Z" fill="#680617"/>
<path d="M120.182 79.8182H18.1819V174.091H120.182V79.8182Z" fill="#1B1B1B"/>
</g>
<mask id="mask4" mask-type="alpha" maskUnits="userSpaceOnUse" x="40" y="62" width="46" height="29">
<path fill-rule="evenodd" clip-rule="evenodd" d="M76.2557 65.5251C68.4559 61.0048 60.7316 61.7449 54.9006 63.2162C49.0696 64.6874 45.6201 68.8653 42.6605 75.0459C41.2074 78.0807 40.346 81.6695 40.2135 85.0269C40.1614 86.3452 40.3392 87.7059 40.6944 88.9752C40.8246 89.4411 41.5272 91.0564 41.72 89.7512C41.7842 89.3167 41.5493 88.7172 41.5265 88.2555C41.4967 87.6496 41.5287 87.0358 41.57 86.4308C41.6473 85.2997 41.8489 84.1901 42.2077 83.1118C42.7205 81.5711 43.3733 79.9005 44.3724 78.6004C46.8455 75.383 51.1265 75.1996 54.5256 73.4292C54.2307 73.972 53.0935 74.8509 53.4875 75.4627C53.7596 75.8853 54.7896 75.7572 55.2813 75.7436C56.5752 75.7082 57.8749 75.4831 59.1529 75.3005C61.1671 75.0126 63.0543 74.4291 64.9498 73.7207C66.5016 73.1405 68.2739 72.6032 69.4402 71.3725C71.3222 73.3227 73.7447 75.1566 76.1636 76.3962C78.3341 77.5086 81.8347 78.0645 83.1615 80.3208C84.7321 82.9921 84.0095 86.2734 84.4892 89.1685C84.6716 90.2695 85.0862 90.2448 85.313 89.2601C85.6982 87.5873 85.8802 85.8494 85.7576 84.1298C85.48 80.2477 84.0555 70.0454 76.2557 65.5251Z" fill="white"/>
</mask>
<g mask="url(#mask4)">
<path fill-rule="evenodd" clip-rule="evenodd" d="M76.2557 65.5251C68.4559 61.0048 60.7316 61.7449 54.9006 63.2162C49.0696 64.6874 45.6201 68.8653 42.6605 75.0459C41.2074 78.0807 40.346 81.6695 40.2135 85.0269C40.1614 86.3452 40.3392 87.7059 40.6944 88.9752C40.8246 89.4411 41.5272 91.0564 41.72 89.7512C41.7842 89.3167 41.5493 88.7172 41.5265 88.2555C41.4967 87.6496 41.5287 87.0358 41.57 86.4308C41.6473 85.2997 41.8489 84.1901 42.2077 83.1118C42.7205 81.5711 43.3733 79.9005 44.3724 78.6004C46.8455 75.383 51.1265 75.1996 54.5256 73.4292C54.2307 73.972 53.0935 74.8509 53.4875 75.4627C53.7596 75.8853 54.7896 75.7572 55.2813 75.7436C56.5752 75.7082 57.8749 75.4831 59.1529 75.3005C61.1671 75.0126 63.0543 74.4291 64.9498 73.7207C66.5016 73.1405 68.2739 72.6032 69.4402 71.3725C71.3222 73.3227 73.7447 75.1566 76.1636 76.3962C78.3341 77.5086 81.8347 78.0645 83.1615 80.3208C84.7321 82.9921 84.0095 86.2734 84.4892 89.1685C84.6716 90.2695 85.0862 90.2448 85.313 89.2601C85.6982 87.5873 85.8802 85.8494 85.7576 84.1298C85.48 80.2477 84.0555 70.0454 76.2557 65.5251Z" fill="#0C213A"/>
<path d="M113.614 52.0001H11.6135V160.182H113.614V52.0001Z" fill="#1B1B1B"/>
<path fill-rule="evenodd" clip-rule="evenodd" d="M49.9571 103.386H51.0226C56.7104 103.386 60.6817 100.129 60.6817 95.4659C60.6817 91.4582 59.9797 87.5455 51.5906 87.5455H50.4546C42.0656 87.5455 41.3635 91.4582 41.3635 95.4659C41.3635 100.425 44.576 103.386 49.9571 103.386ZM42.909 95.8529C42.909 92.5068 42.909 89.8637 50.3988 89.8637H51.6465C59.1363 89.8637 59.1363 92.5068 59.1363 95.8529C59.1363 99.3786 55.8 101.841 51.0226 101.841H49.8523C44.113 101.841 42.909 98.5846 42.909 95.8529Z" fill="#112E51"/>
<path fill-rule="evenodd" clip-rule="evenodd" d="M73.9116 103.386H74.9772C80.6649 103.386 84.6363 100.129 84.6363 95.4659C84.6363 91.4582 83.9342 87.5455 75.5451 87.5455H74.4092C66.0201 87.5455 65.3181 91.4582 65.3181 95.4659C65.3181 100.425 68.5306 103.386 73.9116 103.386ZM66.8635 95.8529C66.8635 92.5068 66.8635 89.8637 74.3533 89.8637H75.601C83.0908 89.8637 83.0908 92.5068 83.0908 95.8529C83.0908 99.3786 79.7545 101.841 74.9772 101.841H73.8068C68.0688 101.841 66.8635 98.5846 66.8635 95.8529Z" fill="#112E51"/>
<path d="M39.0277 89.7754C39.2948 89.5145 42.2171 87.5455 50.443 87.5455C57.3401 87.5455 58.8001 88.2613 61.0101 89.3428L61.1719 89.4226C61.3255 89.4769 62.1113 89.7438 63.0303 89.7732C63.8677 89.7372 64.5839 89.5103 64.7932 89.4376C67.3156 88.2108 69.7848 87.5455 75.5566 87.5455C83.7825 87.5455 86.7048 89.5145 86.9719 89.7754C87.6032 89.7754 88.1134 90.2738 88.1134 90.8904V92.0053C88.1134 92.6219 87.6032 93.1203 86.9719 93.1203C86.9719 93.1203 84.3054 93.1203 84.3054 94.2352C84.3054 95.3502 83.5473 92.6219 83.5473 92.0053V90.9194C82.1552 90.3866 79.663 89.3947 75.5566 89.3947C70.9815 89.3947 68.703 90.206 66.7484 91.0116L66.7703 91.0643L66.7693 91.8317L65.9127 93.8987L64.8545 93.4803C64.76 93.443 64.5561 93.3758 64.2734 93.3061C63.4852 93.1117 62.6748 93.0525 61.9582 93.1996C61.6953 93.2536 61.4513 93.3346 61.2275 93.444L60.2066 93.9428L59.1851 91.9485L59.2305 91.0621L59.2617 90.9867C57.576 90.2013 56.0218 89.3947 50.443 89.3947C46.3368 89.3947 43.8447 90.3862 42.4523 90.919V92.0053C42.4523 92.6219 41.3108 95.3502 41.3108 94.2352C41.3108 93.1203 39.0277 93.1203 39.0277 93.1203C38.3976 93.1203 37.8862 92.6219 37.8862 92.0053V90.8904C37.8862 90.2738 38.3976 89.7754 39.0277 89.7754Z" fill="#112E51"/>
</g>
</g>
<circle cx="264.5" cy="37.5" r="37.5" fill="#0071BB"/>
<path fill-rule="evenodd" clip-rule="evenodd" d="M259.973 41.42C259.693 42.54 259.653 43.78 259.853 45.14H267.593C267.473 43.94 267.593 42.88 267.953 41.96C268.313 41 268.793 40.1 269.393 39.26C270.033 38.42 270.713 37.62 271.433 36.86C272.193 36.06 272.893 35.24 273.533 34.4C274.213 33.56 274.773 32.66 275.213 31.7C275.653 30.7 275.873 29.58 275.873 28.34C275.873 26.58 275.573 25.06 274.973 23.78C274.413 22.46 273.613 21.38 272.573 20.54C271.573 19.7 270.373 19.08 268.973 18.68C267.613 18.28 266.133 18.08 264.533 18.08C262.173 18.08 260.013 18.58 258.053 19.58C256.133 20.58 254.473 21.9 253.073 23.54L257.933 27.98C258.733 27.18 259.553 26.52 260.393 26C261.273 25.48 262.273 25.22 263.393 25.22C264.593 25.22 265.553 25.54 266.273 26.18C267.033 26.82 267.413 27.76 267.413 29C267.413 29.76 267.193 30.5 266.753 31.22C266.353 31.9 265.833 32.62 265.193 33.38C264.553 34.1 263.873 34.86 263.153 35.66C262.473 36.46 261.853 37.34 261.293 38.3C260.733 39.26 260.293 40.3 259.973 41.42ZM259.913 58.16C260.913 59.2 262.173 59.72 263.693 59.72C265.213 59.72 266.473 59.2 267.473 58.16C268.513 57.08 269.033 55.76 269.033 54.2C269.033 52.6 268.513 51.28 267.473 50.24C266.473 49.16 265.213 48.62 263.693 48.62C262.173 48.62 260.913 49.16 259.913 50.24C258.913 51.28 258.413 52.6 258.413 54.2C258.413 55.76 258.913 57.08 259.913 58.16Z" fill="white"/>
</svg>
