<?xml version="1.0" encoding="utf-8"?>
<!-- Generator: Adobe Illustrator 25.2.3, SVG Export Plug-In . SVG Version: 6.00 Build 0)  -->
<svg version="1.1" id="Layer_1" xmlns="http://www.w3.org/2000/svg" xmlns:xlink="http://www.w3.org/1999/xlink" x="0px" y="0px"
	 viewBox="0 0 151.6 55.6" style="enable-background:new 0 0 151.6 55.6;" xml:space="preserve">
<style type="text/css">
	.st0{fill:#262626;}
	.st1{fill:#595959;}
</style>
<g>
	<path class="st0" d="M73,14.7c-0.4,0.4-0.9,0.8-1.6,1s-1.4,0.4-2.2,0.4c-0.9,0-1.6-0.2-2.3-0.6s-1.2-0.9-1.5-1.6s-0.5-1.6-0.5-2.5
		v-0.7c0-1,0.2-1.9,0.5-2.6s0.8-1.3,1.4-1.7s1.4-0.6,2.2-0.6c1.2,0,2.1,0.3,2.8,0.8s1.1,1.4,1.2,2.5h-2c-0.1-0.6-0.3-1-0.6-1.3
		c-0.3-0.3-0.7-0.4-1.3-0.4c-0.7,0-1.2,0.3-1.6,0.8S67,9.6,67,10.6v0.6c0,1,0.2,1.8,0.6,2.4s1,0.8,1.7,0.8c0.8,0,1.3-0.2,1.6-0.5
		v-1.7h-1.9v-1.5H73V14.7z"/>
	<path class="st0" d="M74.3,12.2c0-0.7,0.1-1.4,0.4-2s0.7-1,1.2-1.3s1.1-0.5,1.8-0.5c1,0,1.8,0.3,2.4,0.9s1,1.4,1.1,2.5l0,0.5
		c0,1.1-0.3,2-1,2.7s-1.5,1-2.5,1s-1.9-0.3-2.6-1S74.3,13.5,74.3,12.2L74.3,12.2z M76.2,12.3c0,0.7,0.1,1.2,0.4,1.6
		c0.3,0.4,0.6,0.6,1.1,0.6c0.5,0,0.9-0.2,1.1-0.6c0.3-0.4,0.4-1,0.4-1.8c0-0.7-0.1-1.2-0.4-1.6S78.3,10,77.8,10
		c-0.5,0-0.9,0.2-1.1,0.6S76.2,11.5,76.2,12.3z"/>
	<path class="st0" d="M85.2,13.5l1.4-5h2.1L86.1,16h-1.9l-2.5-7.4h2.1L85.2,13.5z"/>
	<path class="st0" d="M92.8,16.1c-1.1,0-2-0.3-2.6-1s-1-1.6-1-2.7v-0.2c0-0.7,0.1-1.4,0.4-2s0.7-1,1.2-1.4s1.1-0.5,1.8-0.5
		c1,0,1.8,0.3,2.4,1s0.9,1.5,0.9,2.7v0.8h-4.7c0.1,0.5,0.3,0.9,0.6,1.2s0.7,0.4,1.2,0.4c0.8,0,1.4-0.3,1.8-0.8l1,1.1
		c-0.3,0.4-0.7,0.7-1.2,1S93.4,16.1,92.8,16.1z M92.6,10c-0.4,0-0.7,0.1-1,0.4s-0.4,0.6-0.5,1.1h2.7v-0.2c0-0.4-0.1-0.8-0.4-1
		S93,10,92.6,10z"/>
	<path class="st0" d="M101.1,10.4c-0.3,0-0.5-0.1-0.7-0.1c-0.7,0-1.2,0.3-1.5,0.8V16h-2V8.6h1.9l0.1,0.9c0.4-0.7,0.9-1,1.6-1
		c0.2,0,0.4,0,0.6,0.1L101.1,10.4z"/>
	<path class="st0" d="M103.9,8.6l0.1,0.9c0.5-0.7,1.2-1,2.1-1c0.8,0,1.4,0.2,1.8,0.7s0.6,1.1,0.6,2.1V16h-2v-4.7
		c0-0.4-0.1-0.7-0.3-0.9s-0.5-0.3-0.9-0.3c-0.6,0-1,0.2-1.3,0.7V16h-2V8.6H103.9z"/>
	<path class="st0" d="M111.7,8.6l0.1,0.8c0.5-0.6,1.2-1,2.1-1c1,0,1.6,0.4,2,1.1c0.5-0.8,1.3-1.1,2.2-1.1c0.8,0,1.4,0.2,1.8,0.7
		s0.6,1.2,0.6,2.1V16h-2v-4.7c0-0.4-0.1-0.7-0.2-0.9s-0.5-0.3-0.9-0.3c-0.6,0-1,0.3-1.2,0.8l0,5.1h-2v-4.7c0-0.4-0.1-0.7-0.3-0.9
		s-0.5-0.3-0.9-0.3c-0.6,0-1,0.2-1.2,0.7V16h-2V8.6H111.7z"/>
	<path class="st0" d="M125.4,16.1c-1.1,0-2-0.3-2.6-1s-1-1.6-1-2.7v-0.2c0-0.7,0.1-1.4,0.4-2s0.7-1,1.2-1.4s1.1-0.5,1.8-0.5
		c1,0,1.8,0.3,2.4,1s0.9,1.5,0.9,2.7v0.8h-4.7c0.1,0.5,0.3,0.9,0.6,1.2s0.7,0.4,1.2,0.4c0.8,0,1.4-0.3,1.8-0.8l1,1.1
		c-0.3,0.4-0.7,0.7-1.2,1S126,16.1,125.4,16.1z M125.2,10c-0.4,0-0.7,0.1-1,0.4s-0.4,0.6-0.5,1.1h2.7v-0.2c0-0.4-0.1-0.8-0.4-1
		S125.6,10,125.2,10z"/>
	<path class="st0" d="M131.4,8.6l0.1,0.9c0.5-0.7,1.2-1,2.1-1c0.8,0,1.4,0.2,1.8,0.7s0.6,1.1,0.6,2.1V16h-2v-4.7
		c0-0.4-0.1-0.7-0.3-0.9s-0.5-0.3-0.9-0.3c-0.6,0-1,0.2-1.3,0.7V16h-2V8.6H131.4z"/>
	<path class="st0" d="M139.8,6.7v1.8h1.3V10h-1.3v3.7c0,0.3,0.1,0.5,0.2,0.6s0.3,0.2,0.6,0.2c0.2,0,0.4,0,0.6,0v1.5
		c-0.4,0.1-0.8,0.2-1.2,0.2c-1.4,0-2.1-0.7-2.1-2.1v-4h-1.1V8.6h1.1V6.7H139.8z"/>
	<path class="st0" d="M70.8,30.7h-3.6l-0.7,2.1h-2.2l3.7-10h1.9l3.7,10h-2.2L70.8,30.7z M67.8,29h2.5L69,25.3L67.8,29z"/>
	<path class="st0" d="M74.2,29c0-1.1,0.3-2,0.8-2.7s1.3-1,2.2-1c0.8,0,1.4,0.3,1.9,0.8l0.1-0.7h1.8v7.2c0,0.6-0.1,1.2-0.4,1.7
		s-0.7,0.8-1.2,1.1s-1.2,0.4-1.9,0.4c-0.5,0-1.1-0.1-1.6-0.3s-0.9-0.5-1.2-0.8l0.9-1.2c0.5,0.6,1.1,0.8,1.8,0.8
		c0.5,0,0.9-0.1,1.2-0.4S79,33,79,32.5v-0.4c-0.5,0.5-1.1,0.8-1.8,0.8c-0.9,0-1.6-0.3-2.2-1S74.2,30.2,74.2,29L74.2,29z M76.2,29.1
		c0,0.7,0.1,1.2,0.4,1.6c0.3,0.4,0.6,0.6,1.1,0.6c0.6,0,1-0.2,1.3-0.7v-3.1c-0.3-0.5-0.7-0.7-1.3-0.7c-0.5,0-0.8,0.2-1.1,0.6
		C76.3,27.8,76.2,28.4,76.2,29.1z"/>
	<path class="st0" d="M85.9,32.9c-1.1,0-2-0.3-2.6-1s-1-1.6-1-2.7V29c0-0.7,0.1-1.4,0.4-2s0.7-1,1.2-1.4s1.1-0.5,1.8-0.5
		c1,0,1.8,0.3,2.4,1s0.9,1.5,0.9,2.7v0.8h-4.7c0.1,0.5,0.3,0.9,0.6,1.2s0.7,0.4,1.2,0.4c0.8,0,1.4-0.3,1.8-0.8l1,1.1
		c-0.3,0.4-0.7,0.7-1.2,1S86.5,32.9,85.9,32.9z M85.6,26.8c-0.4,0-0.7,0.1-1,0.4s-0.4,0.6-0.5,1.1H87v-0.2c0-0.4-0.1-0.8-0.4-1
		S86.1,26.8,85.6,26.8z"/>
	<path class="st0" d="M91.8,25.4l0.1,0.9c0.5-0.7,1.2-1,2.1-1c0.8,0,1.4,0.2,1.8,0.7s0.6,1.1,0.6,2.1v4.8h-2V28
		c0-0.4-0.1-0.7-0.3-0.9s-0.5-0.3-0.9-0.3c-0.6,0-1,0.2-1.3,0.7v5.2h-2v-7.4H91.8z"/>
	<path class="st0" d="M100.9,31.3c0.4,0,0.7-0.1,0.9-0.3s0.3-0.5,0.4-0.8h1.9c0,0.5-0.1,1-0.4,1.4s-0.6,0.7-1.1,1s-1,0.3-1.5,0.3
		c-1.1,0-1.9-0.3-2.5-1s-0.9-1.6-0.9-2.8V29c0-1.1,0.3-2,0.9-2.7s1.4-1,2.5-1c0.9,0,1.7,0.3,2.2,0.8s0.8,1.2,0.9,2.1h-1.9
		c0-0.4-0.1-0.7-0.4-0.9s-0.5-0.4-0.9-0.4c-0.5,0-0.8,0.2-1,0.5s-0.4,0.9-0.4,1.6v0.2c0,0.8,0.1,1.3,0.3,1.6
		C100.1,31.1,100.5,31.3,100.9,31.3z"/>
	<path class="st0" d="M107.9,30l1.4-4.6h2.1l-3,8.5l-0.2,0.4c-0.4,1-1.2,1.4-2.2,1.4c-0.3,0-0.6,0-0.9-0.1v-1.5l0.3,0
		c0.4,0,0.7-0.1,0.8-0.2s0.3-0.3,0.4-0.6l0.2-0.6l-2.6-7.4h2.1L107.9,30z"/>
	<path class="st0" d="M123.9,32.8h-2.1l-4-6.5v6.5h-2.1v-10h2.1l4,6.6v-6.6h2V32.8z"/>
	<path class="st0" d="M129.8,32.8c-0.1-0.2-0.2-0.4-0.2-0.7c-0.5,0.5-1.1,0.8-1.9,0.8c-0.7,0-1.3-0.2-1.8-0.6s-0.7-0.9-0.7-1.6
		c0-0.8,0.3-1.4,0.9-1.8s1.4-0.6,2.5-0.6h0.9v-0.4c0-0.3-0.1-0.6-0.3-0.8s-0.5-0.3-0.8-0.3c-0.3,0-0.6,0.1-0.8,0.2s-0.3,0.4-0.3,0.7
		h-2c0-0.4,0.1-0.8,0.4-1.2s0.6-0.7,1.1-0.9s1-0.3,1.6-0.3c0.9,0,1.6,0.2,2.2,0.7s0.8,1.1,0.8,1.9V31c0,0.7,0.1,1.2,0.3,1.6v0.1
		H129.8z M128.2,31.4c0.3,0,0.6-0.1,0.8-0.2s0.4-0.3,0.5-0.5v-1.3h-0.7c-1,0-1.5,0.3-1.6,1l0,0.1c0,0.2,0.1,0.4,0.3,0.6
		S127.9,31.4,128.2,31.4z"/>
	<path class="st0" d="M134.9,25.4l0.1,0.8c0.5-0.6,1.2-1,2.1-1c1,0,1.6,0.4,2,1.1c0.5-0.8,1.3-1.1,2.2-1.1c0.8,0,1.4,0.2,1.8,0.7
		s0.6,1.2,0.6,2.1v4.7h-2V28c0-0.4-0.1-0.7-0.2-0.9s-0.5-0.3-0.9-0.3c-0.6,0-1,0.3-1.2,0.8l0,5.1h-2V28c0-0.4-0.1-0.7-0.3-0.9
		s-0.5-0.3-0.9-0.3c-0.6,0-1,0.2-1.2,0.7v5.2h-2v-7.4H134.9z"/>
	<path class="st0" d="M148.6,32.9c-1.1,0-2-0.3-2.6-1s-1-1.6-1-2.7V29c0-0.7,0.1-1.4,0.4-2s0.7-1,1.2-1.4s1.1-0.5,1.8-0.5
		c1,0,1.8,0.3,2.4,1s0.9,1.5,0.9,2.7v0.8h-4.7c0.1,0.5,0.3,0.9,0.6,1.2s0.7,0.4,1.2,0.4c0.8,0,1.4-0.3,1.8-0.8l1,1.1
		c-0.3,0.4-0.7,0.7-1.2,1S149.2,32.9,148.6,32.9z M148.4,26.8c-0.4,0-0.7,0.1-1,0.4s-0.4,0.6-0.5,1.1h2.7v-0.2c0-0.4-0.1-0.8-0.4-1
		S148.8,26.8,148.4,26.8z"/>
	<path class="st0" d="M67.2,46v3.5h-2.1v-10h3.9c0.7,0,1.4,0.1,2,0.4s1,0.7,1.3,1.2s0.5,1.1,0.5,1.7c0,1-0.3,1.7-1,2.3
		S70.2,46,69,46H67.2z M67.2,44.4h1.8c0.5,0,1-0.1,1.2-0.4s0.4-0.6,0.4-1.1c0-0.5-0.1-0.9-0.4-1.2s-0.7-0.5-1.2-0.5h-1.9V44.4z"/>
	<path class="st0" d="M76.2,49.6h-2V39.1h2V49.6z"/>
	<path class="st0" d="M82.1,49.6c-0.1-0.2-0.2-0.4-0.2-0.7c-0.5,0.5-1.1,0.8-1.9,0.8c-0.7,0-1.3-0.2-1.8-0.6s-0.7-0.9-0.7-1.6
		c0-0.8,0.3-1.4,0.9-1.8s1.4-0.6,2.5-0.6h0.9v-0.4c0-0.3-0.1-0.6-0.3-0.8s-0.5-0.3-0.8-0.3c-0.3,0-0.6,0.1-0.8,0.2s-0.3,0.4-0.3,0.7
		h-2c0-0.4,0.1-0.8,0.4-1.2s0.6-0.7,1.1-0.9s1-0.3,1.6-0.3c0.9,0,1.6,0.2,2.2,0.7s0.8,1.1,0.8,1.9v3.2c0,0.7,0.1,1.2,0.3,1.6v0.1
		H82.1z M80.4,48.2c0.3,0,0.6-0.1,0.8-0.2s0.4-0.3,0.5-0.5v-1.3h-0.7c-1,0-1.5,0.3-1.6,1l0,0.1c0,0.2,0.1,0.4,0.3,0.6
		S80.1,48.2,80.4,48.2z"/>
	<path class="st0" d="M88.4,48.1c0.4,0,0.7-0.1,0.9-0.3s0.3-0.5,0.4-0.8h1.9c0,0.5-0.1,1-0.4,1.4s-0.6,0.7-1.1,1s-1,0.3-1.5,0.3
		c-1.1,0-1.9-0.3-2.5-1S85,47.1,85,45.9v-0.1c0-1.1,0.3-2,0.9-2.7s1.4-1,2.5-1c0.9,0,1.7,0.3,2.2,0.8s0.8,1.2,0.9,2.1h-1.9
		c0-0.4-0.1-0.7-0.4-0.9s-0.5-0.4-0.9-0.4c-0.5,0-0.8,0.2-1,0.5S87,45,87,45.8V46c0,0.8,0.1,1.3,0.3,1.6
		C87.5,47.9,87.9,48.1,88.4,48.1z"/>
	<path class="st0" d="M96,49.7c-1.1,0-2-0.3-2.6-1s-1-1.6-1-2.7v-0.2c0-0.7,0.1-1.4,0.4-2s0.7-1,1.2-1.4s1.1-0.5,1.8-0.5
		c1,0,1.8,0.3,2.4,1s0.9,1.5,0.9,2.7v0.8h-4.7c0.1,0.5,0.3,0.9,0.6,1.2s0.7,0.4,1.2,0.4c0.8,0,1.4-0.3,1.8-0.8l1,1.1
		c-0.3,0.4-0.7,0.7-1.2,1S96.6,49.7,96,49.7z M95.8,43.6c-0.4,0-0.7,0.1-1,0.4s-0.4,0.6-0.5,1.1h2.7V45c0-0.4-0.1-0.8-0.4-1
		S96.2,43.6,95.8,43.6z"/>
	<path class="st0" d="M102.1,43c0.5-0.6,1.2-0.9,2-0.9c1.6,0,2.4,0.9,2.4,2.8v4.7h-2v-4.7c0-0.4-0.1-0.7-0.3-0.9s-0.5-0.3-0.9-0.3
		c-0.6,0-1,0.2-1.3,0.7v5.3h-2V39.1h2V43z"/>
	<path class="st0" d="M107.7,45.8c0-0.7,0.1-1.4,0.4-2s0.7-1,1.2-1.3s1.1-0.5,1.8-0.5c1,0,1.8,0.3,2.4,0.9s1,1.4,1.1,2.5l0,0.5
		c0,1.1-0.3,2-1,2.7s-1.5,1-2.5,1s-1.9-0.3-2.6-1S107.7,47.1,107.7,45.8L107.7,45.8z M109.7,45.9c0,0.7,0.1,1.2,0.4,1.6
		c0.3,0.4,0.6,0.6,1.1,0.6c0.5,0,0.9-0.2,1.1-0.6c0.3-0.4,0.4-1,0.4-1.8c0-0.7-0.1-1.2-0.4-1.6s-0.6-0.6-1.1-0.6
		c-0.5,0-0.9,0.2-1.1,0.6S109.7,45.1,109.7,45.9z"/>
	<path class="st0" d="M118,49.6h-2V39.1h2V49.6z"/>
	<path class="st0" d="M119.3,45.8c0-1.2,0.3-2.1,0.8-2.8s1.2-1,2.1-1c0.7,0,1.3,0.3,1.8,0.8v-3.8h2v10.5h-1.8l-0.1-0.8
		c-0.5,0.6-1.1,0.9-1.9,0.9c-0.9,0-1.6-0.3-2.1-1S119.3,47,119.3,45.8z M121.3,45.9c0,0.7,0.1,1.2,0.4,1.6c0.2,0.4,0.6,0.6,1.1,0.6
		c0.6,0,1-0.3,1.3-0.8v-2.9c-0.2-0.5-0.7-0.8-1.3-0.8C121.8,43.6,121.3,44.4,121.3,45.9z"/>
	<path class="st0" d="M130.9,49.7c-1.1,0-2-0.3-2.6-1s-1-1.6-1-2.7v-0.2c0-0.7,0.1-1.4,0.4-2s0.7-1,1.2-1.4s1.1-0.5,1.8-0.5
		c1,0,1.8,0.3,2.4,1s0.9,1.5,0.9,2.7v0.8h-4.7c0.1,0.5,0.3,0.9,0.6,1.2s0.7,0.4,1.2,0.4c0.8,0,1.4-0.3,1.8-0.8l1,1.1
		c-0.3,0.4-0.7,0.7-1.2,1S131.5,49.7,130.9,49.7z M130.7,43.6c-0.4,0-0.7,0.1-1,0.4s-0.4,0.6-0.5,1.1h2.7V45c0-0.4-0.1-0.8-0.4-1
		S131.1,43.6,130.7,43.6z"/>
	<path class="st0" d="M139.2,44c-0.3,0-0.5-0.1-0.7-0.1c-0.7,0-1.2,0.3-1.5,0.8v4.8h-2v-7.4h1.9L137,43c0.4-0.7,0.9-1,1.6-1
		c0.2,0,0.4,0,0.6,0.1L139.2,44z"/>
</g>
<circle class="st1" cx="27.8" cy="27.8" r="27.8"/>
</svg>
